<?xml version="1.0" standalone="no"?>
<!DOCTYPE svg PUBLIC "-//W3C//DTD SVG 1.1//EN" "http://www.w3.org/Graphics/SVG/1.1/DTD/svg11.dtd" >
<!--
2016-5-9: Created with FontForge (http://fontforge.org)
-->
<svg xmlns="http://www.w3.org/2000/svg" xmlns:xlink="http://www.w3.org/1999/xlink" version="1.1">
<metadata>
Created by FontForge 20150603 at Mon May  9 04:47:50 2016
 By icons8
Copyright (c) 2016, icons8
</metadata>
<defs>
<font id="Icons8" horiz-adv-x="512" >
  <font-face 
    font-family="Icons8"
    font-weight="400"
    font-stretch="normal"
    units-per-em="512"
    panose-1="2 0 5 3 0 0 0 0 0 0"
    ascent="448"
    descent="-64"
    bbox="-0.21591 -65 514 448"
    underline-thickness="25.6"
    underline-position="-51.2"
    unicode-range="U+F100-F118"
  />
    <missing-glyph />
    <glyph glyph-name="uniF112" unicode="&#xf112;" horiz-adv-x="451" 
d="M10 387h10h410h10v-11v-51v0v0v-1c1 -4 11 -49 11 -76c0 -14 -4 -27 -11 -38v-243v-11h-10h-49h-4h-88h-4h-265h-10v11v243c-7 11 -10 24 -10 38c0 27 9 74 10 77v0v51v11zM31 366v-31h49v0l1 1h1c1 0 1 -1 2 -1h1h67l1 1v0c1 0 2 -1 3 -1h67l1 1h1c1 0 2 -1 3 -1h67l1 1
h1c1 0 1 -1 2 -1h67c1 0 1 1 2 1s2 -1 3 -1h49v31h-389zM29 315c-2 -9 -9 -47 -9 -67c0 -11 3 -21 7 -27c1 -1 1 -2 2 -3c4 -4 9 -6 17 -6c10 0 19 5 26 12v91h-43zM92 315v-91c7 -7 16 -12 26 -12s18 5 25 12v91h-51zM164 315v-91c7 -7 15 -12 25 -12s19 5 26 12v91h-51z
M236 315v-91c7 -7 15 -12 25 -12s19 5 26 12v91h-51zM307 315v-91c7 -7 16 -12 26 -12s18 5 25 12v91h-51zM379 315v-91c7 -7 15 -12 25 -12c7 0 12 2 16 5c1 2 3 6 5 7c3 6 5 14 5 24c0 20 -7 58 -9 67h-42zM297 207c-10 -9 -22 -15 -36 -15s-26 6 -36 15
c-10 -9 -22 -15 -36 -15s-25 6 -35 15c-10 -9 -22 -15 -36 -15s-26 6 -36 15c-10 -9 -22 -15 -36 -15c-5 0 -10 1 -15 3v-218h245v174v10h11h92h10v-10v-174h31v218c-5 -2 -11 -3 -16 -3c-14 0 -25 6 -35 15c-10 -9 -22 -15 -36 -15s-26 6 -36 15zM61 161h11h164h10v-10
v-133v-10h-10h-164h-11v10v133v10zM82 141v-113h143v113h-143zM297 141v-164h72v164h-72z" />
    <glyph glyph-name="uniF117" unicode="&#xf117;" horiz-adv-x="510" 
d="M102 448c34 0 62 -27 62 -61s-28 -62 -62 -62s-61 28 -61 62s27 61 61 61zM379 448c34 0 61 -27 61 -61s-27 -62 -61 -62s-62 28 -62 62s28 61 62 61zM102 428c-23 0 -41 -18 -41 -41s18 -41 41 -41s41 18 41 41s-18 41 -41 41zM379 428c-23 0 -41 -18 -41 -41
s18 -41 41 -41s41 18 41 41s-18 41 -41 41zM56 315h10h73h10c31 0 56 -25 56 -56v-138v0v-1v0v-1v-2c-2 -15 -15 -27 -31 -27c-4 0 -7 1 -10 2v-120c0 -20 -16 -36 -36 -36c-10 0 -19 4 -26 11c-7 -7 -15 -11 -25 -11c-20 0 -36 16 -36 36v120c-3 -1 -6 -2 -10 -2
c-16 0 -29 12 -31 27v3v0v1v1v137c0 31 25 56 56 56zM339 315h41h39c16 0 27 -7 35 -15s12 -17 14 -23c0 0 32 -97 41 -126v0c3 -10 2 -20 -3 -28s-15 -13 -25 -13l5 -13v-1c1 -5 2 -12 -2 -18l-2 -2c-3 -3 -7 -7 -15 -7h-37v-102c0 -17 -14 -31 -31 -31c-8 0 -15 3 -20 8
c-5 -5 -13 -8 -21 -8c-17 0 -30 14 -30 31v102h-37c-8 0 -12 4 -15 7l-2 2c-4 6 -3 13 -2 18v1l5 13c-10 0 -20 5 -25 13s-6 18 -3 28v0c9 29 41 126 41 126c2 6 6 15 14 23s19 15 35 15zM56 294c-20 0 -35 -15 -35 -35v-137v-1v-1v0v0c0 -5 5 -10 10 -10c6 0 10 4 10 10v1
v0v1v111v0c0 5 4 9 8 10l1 1h1c6 0 10 -5 10 -11v0v-112v-1v-148c0 -9 7 -16 16 -16s15 7 15 16v0v1v1v126v0c0 5 4 9 8 10h1h1c6 0 11 -4 11 -10v0v-126v-1v0v-1c0 -9 6 -16 15 -16s15 7 15 16v148v1v1v0v111v0c0 5 4 9 8 10h3c6 0 10 -4 10 -10v0v-111v0v-1v-1
c0 -6 4 -10 10 -10s10 4 10 10v1v0v1v137c0 20 -15 35 -35 35h-10h-73h-10zM339 294c-10 0 -16 -3 -21 -8s-7 -11 -8 -15c0 0 -32 -97 -41 -126v0v0c-2 -5 -1 -9 0 -11s4 -3 8 -3s6 1 8 6l30 89c1 3 5 6 8 7h2c6 0 10 -4 10 -10c0 -1 -1 -2 -1 -3l-29 -87v-3l-13 -39
c-1 -2 -1 -1 -1 -1h45h42v0h1h41h47s0 -1 -1 1l-12 38l-1 1v2l-30 88v3c0 5 4 9 8 10h2c4 0 9 -3 10 -7l29 -88v-1c2 -5 5 -6 9 -6s7 1 8 3s2 6 0 11v0v0c-9 29 -41 126 -41 126c-1 4 -4 10 -9 15s-10 8 -20 8h-39h-41zM348 69v-102c0 -6 4 -11 10 -11s11 5 11 11v102h-21z
M389 69v-102c0 -6 4 -11 10 -11s11 5 11 11v102h-21z" />
    <glyph glyph-name="uniF102" unicode="&#xf102;" 
d="M296 356h1c2 0 5 -1 7 -3c5 -5 4 -5 10 -6s18 -1 44 -1c6 0 11 -5 11 -11v0v-3c0 -3 1 -7 2 -12c2 -10 5 -26 9 -44c3 -13 6 -28 10 -45c6 1 13 2 20 2c56 0 102 -46 102 -102s-46 -103 -102 -103s-103 47 -103 103c0 43 27 79 64 94c-3 10 -5 19 -7 28l-110 -128l-1 -1
v0v-1v0h-1v0v-1c-1 -1 -4 -2 -6 -2h-42c-5 -52 -49 -92 -102 -92c-56 0 -102 47 -102 103s46 102 102 102c13 0 26 -3 37 -7l24 48l-18 36c-18 -6 -32 -14 -32 10c0 9 2 14 13 14h65c8 1 14 1 14 -5c0 -7 -11 -14 -38 -14h-2l15 -31h177c-3 13 -5 24 -6 32c-1 4 -2 6 -2 9
c-17 0 -30 0 -38 1c-10 2 -16 7 -21 12c-2 2 -4 6 -4 8c0 5 4 9 9 10h1zM191 264l57 -115l99 115h-156zM174 251l-17 -34c26 -16 44 -44 47 -76h25zM102 212c-45 0 -82 -36 -82 -81s37 -82 82 -82c42 0 77 31 82 71h-82v0c-6 0 -10 5 -10 11c0 1 0 3 1 4l37 73
c-9 3 -18 4 -28 4zM410 212c-5 0 -9 0 -14 -1c6 -24 14 -49 23 -77c1 -1 1 -4 1 -5c0 -6 -4 -10 -10 -10c-5 0 -9 3 -10 8c-10 28 -17 54 -24 78c-28 -13 -48 -41 -48 -74c0 -45 37 -82 82 -82s82 37 82 82s-37 81 -82 81zM148 198l-29 -57h65c-3 24 -17 44 -36 57z" />
    <glyph glyph-name="uniF10C" unicode="&#xf10c;" horiz-adv-x="389" 
d="M195 417c68 0 122 -55 122 -123v-51h41c17 0 31 -14 31 -31v-245c0 -17 -14 -31 -31 -31h-327c-17 0 -31 14 -31 31v245c0 17 14 31 31 31h41v51c0 68 55 123 123 123zM195 397c-57 0 -103 -46 -103 -103v-51h205v51c0 57 -45 103 -102 103zM31 223c-6 0 -11 -5 -11 -11
v-245c0 -6 5 -11 11 -11h327c6 0 11 5 11 11v245c0 6 -5 11 -11 11h-327zM195 141c17 0 30 -14 30 -31c0 -9 -4 -17 -10 -22v-29c0 -11 -9 -21 -20 -21s-21 10 -21 21v29c-6 5 -10 13 -10 22c0 17 14 31 31 31z" />
    <glyph glyph-name="uniF10F" unicode="&#xf10f;" horiz-adv-x="431" 
d="M231 417c76 0 138 -62 138 -138c0 -47 -7 -75 -20 -99c-12 -21 -28 -39 -46 -61l125 -124c2 -2 3 -6 3 -8c0 -6 -5 -10 -11 -10c-2 0 -5 1 -7 3l-130 130l-2 2l-138 138c-2 1 -4 3 -5 5l-40 40l-1 1l-94 93c-2 2 -3 6 -3 8c0 5 3 9 8 10h3c2 0 5 -1 7 -3l82 -81
c18 55 70 94 131 94zM231 397c-56 0 -103 -39 -115 -91l28 -28v1c0 48 39 87 87 87s87 -39 87 -87v0c0 -6 -4 -10 -10 -10s-11 4 -11 10v0c0 36 -30 67 -66 67s-67 -31 -67 -67c0 -7 -2 -12 -4 -17l128 -128c18 21 33 37 43 55c11 21 18 45 18 90c0 65 -53 118 -118 118z
M118 238l15 -14l-1 -1s0 -1 1 -3s4 -5 7 -7v0c1 0 2 -1 3 -1c5 -2 11 -5 18 -10s13 -14 13 -25c0 -6 -1 -11 -4 -15s-7 -7 -10 -9c-7 -4 -12 -6 -15 -9c-8 -8 -11 -15 -11 -24c0 -17 13 -30 30 -30v0c6 0 11 -5 11 -11s-5 -10 -11 -10v0c-28 0 -51 23 -51 51
c0 15 7 28 17 38c7 7 15 10 19 13c2 1 3 2 4 3s1 1 1 3c0 3 -2 6 -6 9c-3 3 -8 5 -12 7v0c-9 3 -15 9 -20 17c-2 4 -4 8 -4 13s2 11 6 15zM261 96l14 -15c-2 -2 -10 -12 -17 -25c-7 -12 -14 -28 -21 -42l-1 -1v-1v0v0c-14 -28 -45 -45 -77 -45c-48 0 -87 39 -87 87v0
c0 5 4 9 8 10h2c6 0 11 -4 11 -10v0c0 -36 30 -67 66 -67c25 0 49 13 59 34c7 15 15 32 23 45s14 24 20 30z" />
    <glyph glyph-name="uniF10E" unicode="&#xf10e;" 
d="M296 407h1c6 0 11 -4 11 -10c0 -2 -2 -6 -4 -8c0 0 -6 -7 -10 -16s-8 -21 -8 -31s3 -20 12 -28s24 -17 51 -20s48 -8 63 -17s24 -23 28 -42c0 -1 1 -2 1 -3c0 -6 -5 -10 -11 -10c-5 0 -9 4 -10 9c-3 15 -8 23 -19 29s-28 11 -54 14c-30 4 -50 13 -63 25s-18 28 -18 43
s5 28 10 39s9 18 14 23c1 1 4 3 6 3zM356 397h1v0h1v0c12 0 31 -1 48 -11c15 -9 27 -26 32 -52c13 -1 31 -3 46 -16c9 -8 15 -19 17 -34s-1 -33 -10 -55c-1 -4 -6 -6 -10 -6c-6 0 -10 4 -10 10c0 1 1 3 1 4c8 20 10 35 9 45s-5 16 -11 21c-11 10 -31 12 -40 12v0
c-5 0 -10 4 -10 9c-2 26 -12 37 -24 44s-27 8 -38 8h-1c-6 0 -10 5 -10 11c0 5 4 10 9 10zM91 356h1c2 0 6 -1 8 -3l150 -151h147h2h2h47h2h2h50c6 0 10 -4 10 -10v-82c0 -6 -4 -10 -10 -10h-100h-5h-44l115 -116c2 -2 3 -5 3 -7c0 -6 -4 -10 -10 -10c-2 0 -6 1 -8 3
l-368 368c-2 2 -3 6 -3 8c0 5 3 9 8 10h1zM10 202h174l21 -20h-185v-62h246l21 -20h-277c-6 0 -10 4 -10 10v82c0 6 4 10 10 10zM271 182l61 -62h57v62h-118zM410 182v-62h30v62h-30zM461 182v-62h31v62h-31z" />
    <glyph glyph-name="uniF10A" unicode="&#xf10a;" 
d="M256 447l10 -6l245 -134l-20 -38l-235 130l-235 -130l-20 38l245 134zM143 271c0 0 15 -14 22 -38s5 -59 -19 -96c-18 -27 -17 -45 -13 -59s10 -20 10 -20l-30 -31s-15 15 -22 39s-5 58 19 95c18 27 17 46 13 60s-10 20 -10 20zM271 271c0 0 15 -14 22 -38s5 -59 -19 -96
c-18 -27 -17 -45 -13 -59s10 -20 10 -20l-30 -31s-15 15 -22 39s-5 58 19 95c18 27 17 46 13 60s-10 20 -10 20zM399 271c0 0 15 -14 22 -38s5 -59 -19 -96c-18 -27 -17 -45 -13 -59s10 -20 10 -20l-30 -31s-15 15 -22 39s-5 58 19 95c18 27 17 46 13 60s-10 20 -10 20z
M0 -21h512v-43h-512v43z" />
    <glyph glyph-name="uniF10B" unicode="&#xf10b;" 
d="M191 448h130c21 0 37 -17 38 -37v0v-1v-130c0 -21 -16 -38 -37 -38h-131c-21 0 -37 17 -37 38v130c0 21 16 38 37 38zM191 428c-10 0 -17 -8 -17 -18v-130c0 -10 7 -17 17 -17h131c10 0 17 7 17 17v129c-1 10 -8 19 -18 19h-130zM246 397h20v-41h41v-21h-41v-41h-20v41
h-41v21h41v41zM38 356h105v-21h-105c-10 0 -18 -7 -18 -17v-362h185v134v10h10h45h37h10v-10v-134h185v362c0 10 -8 17 -18 17h-105v21h105c21 0 38 -17 38 -38v-372v-10h-10h-492h-10v10v372c0 21 17 38 38 38zM61 213h11h40h42h10v-11v-61v-11h-10h-82h-11v11v61v11z
M204 213h11h40h42h11v-11v-61v-11h-11h-82h-11v11v61v11zM348 213h10h40h42h11v-11v-61v-11h-11h-82h-10v11v61v11zM82 192v-41h61v41h-31h-30zM226 192v-41h60v41h-31h-29zM369 192v-41h61v41h-32h-29zM61 100h11h40h42h10v-10v-62v-10h-10h-82h-11v10v62v10zM348 100h10
h40h42h11v-10v-62v-10h-11h-82h-10v10v62v10zM225 79v-123h62v123h-27h-35zM82 79v-40h61v40h-31h-30zM369 79v-40h61v40h-32h-29z" />
    <glyph glyph-name="uniF101" unicode="&#xf101;" 
d="M123 448h10h246h10v-10v-236h-20v113h-103v-113h-20v113h-103v-113h-20v236v10zM143 428v-93h103v93h-103zM266 428v-93h103v93h-103zM31 223c17 0 30 -14 30 -31h-20c0 6 -4 10 -10 10s-11 -4 -11 -10s5 -10 11 -10h450c6 0 11 4 11 10s-5 10 -11 10s-10 -4 -10 -10h-20
c0 17 13 31 30 31s31 -14 31 -31s-13 -31 -30 -31c1 -17 5 -32 9 -46c5 -17 11 -34 11 -54c0 -18 -6 -33 -11 -45s-10 -22 -10 -29v-41v-10h-10h-430h-10v10v41c0 7 -5 17 -10 29s-11 27 -11 45c0 20 6 37 11 54c4 14 8 29 9 46c-17 0 -30 14 -30 31s14 31 31 31zM51 161
c-1 -20 -6 -37 -10 -52c-5 -17 -10 -32 -10 -48c0 -13 4 -25 9 -37c4 -9 8 -18 10 -27h32c-1 6 -3 14 -5 22c-4 14 -9 30 -9 44c0 15 4 34 8 53c3 15 6 31 7 45h-32zM104 161c-1 -16 -4 -33 -7 -49c-4 -19 -8 -38 -8 -49c0 -10 3 -24 7 -38c3 -10 6 -20 7 -28h34v3
c-1 6 -3 15 -4 23c-3 16 -5 32 -5 42c0 11 2 31 5 52c2 16 4 32 5 44h-34zM158 161c-1 -13 -2 -29 -4 -46c-3 -21 -6 -43 -6 -50c0 -5 3 -23 6 -39c1 -8 2 -16 3 -23c0 -2 1 -4 1 -6h34v3c0 7 -1 16 -2 25c-1 18 -2 36 -2 42c0 7 1 29 2 52c1 19 2 33 2 42h-34zM213 161
c0 -11 -1 -26 -2 -44c-1 -23 -3 -47 -3 -50c0 -2 2 -22 3 -40c1 -9 1 -19 1 -26v-4h34v72v92h-33zM266 161v-92v-72h34v4c0 7 0 17 1 26c1 18 3 38 3 40c0 3 -2 27 -3 50c-1 18 -2 33 -2 44h-33zM320 161c0 -9 1 -23 2 -42c1 -23 2 -45 2 -52c0 -6 -1 -24 -2 -42
c-1 -9 -2 -18 -2 -25v-3h34c0 2 1 4 1 6c1 7 2 15 3 23c3 16 6 34 6 39c0 7 -3 29 -6 50c-2 17 -3 33 -4 46h-34zM374 161c1 -12 3 -28 5 -44c3 -21 5 -41 5 -52c0 -10 -2 -26 -5 -42c-1 -8 -3 -17 -4 -23v-3h34c1 8 4 18 7 28c4 14 7 28 7 38c0 11 -4 30 -8 49
c-3 16 -6 33 -7 49h-34zM429 161c1 -14 4 -30 7 -45c4 -19 8 -38 8 -53c0 -14 -5 -30 -9 -44c-2 -8 -4 -16 -5 -22h32c2 9 6 18 10 27c5 12 9 23 9 37c0 16 -5 31 -10 48c-4 15 -9 32 -10 52h-32zM51 -23v-21h410v21h-410z" />
    <glyph glyph-name="uniF100" unicode="&#xf100;" horiz-adv-x="448" 
d="M48 368h352c26 0 48 -22 48 -48v-88c0 -8 -2 -15 -4 -20v0l-1 -2l-19 -38v-2v0c-8 -17 -25 -26 -43 -26h-45v32h45c7 0 12 3 14 8v0l11 24h-364l11 -24v0c2 -5 7 -8 14 -8h45v-32h-45c-18 0 -35 9 -43 26v2l-19 38l-1 2v0c-2 5 -4 12 -4 20v88c0 26 22 48 48 48zM48 336
c-9 0 -16 -7 -16 -16v-80h384v80c0 9 -7 16 -16 16h-352zM160 176c9 0 16 -7 16 -16s-7 -16 -16 -16s-16 7 -16 16s7 16 16 16zM224 176c9 0 16 -7 16 -16s-7 -16 -16 -16s-16 7 -16 16s7 16 16 16zM288 176c9 0 16 -7 16 -16s-7 -16 -16 -16s-16 7 -16 16s7 16 16 16z
M144 128c9 0 16 -7 16 -16s-7 -16 -16 -16s-16 7 -16 16s7 16 16 16zM224 128c9 0 16 -7 16 -16s-7 -16 -16 -16s-16 7 -16 16s7 16 16 16zM304 128c9 0 16 -7 16 -16s-7 -16 -16 -16s-16 7 -16 16s7 16 16 16zM128 80c9 0 16 -7 16 -16s-7 -16 -16 -16s-16 7 -16 16
s7 16 16 16zM224 80c9 0 16 -7 16 -16s-7 -16 -16 -16s-16 7 -16 16s7 16 16 16zM320 80c9 0 16 -7 16 -16s-7 -16 -16 -16s-16 7 -16 16s7 16 16 16zM96 32c9 0 16 -7 16 -16s-7 -16 -16 -16s-16 7 -16 16s7 16 16 16zM224 32c9 0 16 -7 16 -16s-7 -16 -16 -16
s-16 7 -16 16s7 16 16 16zM352 32c9 0 16 -7 16 -16s-7 -16 -16 -16s-16 7 -16 16s7 16 16 16z" />
    <glyph glyph-name="uniF116" unicode="&#xf116;" horiz-adv-x="432" 
d="M216 407h1c6 0 10 -4 10 -10v0v-62v0c0 -6 -4 -10 -10 -10s-11 4 -11 10v0v62v0c0 5 4 9 8 10h2zM70 347v0h1h1c2 0 5 -1 7 -3l44 -44c2 -2 3 -4 3 -7c0 -6 -4 -11 -10 -11c-3 0 -6 2 -8 4l-43 44c-2 2 -4 5 -4 7c0 5 4 9 9 10zM360 347h2c6 0 10 -4 10 -10
c0 -2 -1 -5 -3 -7l-44 -44c-2 -2 -5 -4 -8 -4c-6 0 -10 5 -10 11c0 3 2 5 4 7l43 44c1 1 4 3 6 3zM216 294v0h1v0h3l1 -1c54 -3 98 -46 98 -101c0 -56 -46 -102 -102 -102s-103 46 -103 102c0 55 44 99 98 101l1 1h2h1zM216 274c-45 0 -81 -37 -81 -82s37 -82 82 -82
s82 37 82 82s-36 81 -81 82h-1h-1v0zM9 202v0h1v0h1v0h1h61v0c6 0 11 -4 11 -10s-5 -10 -11 -10v0h-61h-2c-6 0 -10 4 -10 10c0 5 4 9 9 10zM357 202h1v0h1v0v0h1h61h1c6 0 10 -4 10 -10s-4 -10 -10 -10h-1h-61h-1c-6 0 -11 4 -11 10c0 5 4 9 9 10zM114 101h1v0v0
c6 0 11 -4 11 -10c0 -2 -1 -5 -3 -7l-44 -44c-2 -2 -5 -4 -8 -4c-6 0 -10 4 -10 10c0 3 2 6 4 8l43 44c1 1 4 3 6 3zM316 101v0h1v0h1c2 0 5 -1 7 -3l44 -44c2 -2 3 -5 3 -8c0 -6 -4 -10 -10 -10c-3 0 -6 2 -8 4l-43 44c-2 2 -4 5 -4 7c0 5 4 9 9 10zM216 59h1
c6 0 10 -4 10 -10v0v-62v0c0 -6 -4 -10 -10 -10s-11 4 -11 10v0v62v0c0 5 4 9 8 10h2z" />
    <glyph glyph-name="uniF114" unicode="&#xf114;" 
d="M451 448c34 0 61 -27 61 -61v-163v-1v0v-39v-1v-1v-1v0c0 -1 0 -3 -1 -4v-1l-1 -1h-1v0v-1v0s-1 -1 -2 -1s-1 -1 -2 -1h-3v0c-12 0 -20 -9 -20 -21v-51c0 -51 -35 -94 -82 -108c2 -9 10 -15 20 -15v0c6 0 11 -4 11 -10s-5 -11 -11 -11v0c-19 0 -35 14 -39 32
c-4 0 -8 -1 -12 -1h-225c-4 0 -8 1 -12 1c-4 -18 -20 -32 -39 -32h-1c-6 0 -10 5 -10 11s4 10 10 10h1c10 0 17 6 19 15c-47 14 -81 57 -81 108v51c0 12 -8 21 -20 21h-1v0v0h-2h-1v0v0h-1v0v0l-1 1c-1 0 -1 1 -2 2v0v0c-2 2 -3 5 -3 7v3v38v0c0 5 4 9 9 10v0h1v0h1h481v154
c0 23 -18 41 -41 41c-20 0 -36 -13 -40 -32c23 -5 40 -26 40 -50c0 -6 -4 -11 -10 -11h-82c-6 0 -10 5 -10 11c0 25 17 45 41 50c4 30 30 52 61 52zM400 376c-13 0 -22 -9 -27 -20h53c-5 11 -13 20 -26 20zM369 325c6 0 10 -4 10 -10s-4 -10 -10 -10s-10 4 -10 10
s4 10 10 10zM400 325c6 0 10 -4 10 -10s-4 -10 -10 -10s-11 4 -11 10s5 10 11 10zM430 325c6 0 11 -4 11 -10s-5 -10 -11 -10s-10 4 -10 10s4 10 10 10zM359 294c6 0 10 -4 10 -10s-4 -10 -10 -10s-10 4 -10 10s4 10 10 10zM400 294c6 0 10 -4 10 -10s-4 -10 -10 -10
s-11 4 -11 10s5 10 11 10zM441 294c6 0 10 -4 10 -10s-4 -10 -10 -10s-11 4 -11 10s5 10 11 10zM349 264c6 0 10 -5 10 -11s-4 -10 -10 -10s-11 4 -11 10s5 11 11 11zM400 264c6 0 10 -5 10 -11s-4 -10 -10 -10s-11 4 -11 10s5 11 11 11zM451 264c6 0 10 -5 10 -11
s-4 -10 -10 -10s-10 4 -10 10s4 11 10 11zM21 212v-20h471v20h-471zM46 172c3 -6 6 -14 6 -21v-51c0 -51 41 -92 92 -92h225c51 0 92 41 92 92v51c0 7 3 15 6 21h-421z" />
    <glyph glyph-name="uniF105" unicode="&#xf105;" 
d="M163 448h1c3 0 6 -2 8 -4l51 -61c1 -2 2 -5 2 -7c0 -6 -4 -10 -10 -10v0h-102v0c-6 0 -11 4 -11 10c0 2 2 5 3 7l51 61c1 2 5 4 7 4zM305 448h1v0h1v0h103v0c6 0 10 -4 10 -10c0 -2 -1 -5 -2 -7l-52 -61c-2 -2 -5 -4 -8 -4s-6 2 -8 4l-51 61c-1 2 -2 5 -2 7c0 5 3 9 8 10
zM329 428l29 -36l30 36h-59zM164 422l-30 -35h59zM31 346h450c17 0 31 -14 31 -31v-348c0 -17 -14 -31 -31 -31h-450c-17 0 -31 14 -31 31v348c0 17 14 31 31 31zM31 325c-6 0 -11 -4 -11 -10v-348c0 -6 5 -11 11 -11h450c6 0 11 5 11 11v348c0 6 -5 10 -11 10h-450z
M113 305c23 0 41 -18 41 -41c0 -22 -18 -41 -41 -41c-22 0 -41 19 -41 41c0 23 19 41 41 41zM113 223c34 0 61 -28 61 -62v-71v0c0 -4 -3 -8 -6 -10l-14 -7v-86c0 -6 -5 -10 -11 -10h-61c-6 0 -10 4 -10 10v86l-15 7c-3 2 -6 6 -6 10v0v71c0 34 28 62 62 62zM256 305
c22 0 41 -18 41 -41c0 -22 -19 -41 -41 -41s-41 19 -41 41c0 23 19 41 41 41zM256 223c34 0 61 -28 61 -62v-71v0c0 -4 -2 -8 -5 -10l-15 -7v-86c0 -6 -4 -10 -10 -10h-62c-6 0 -10 4 -10 10v86l-15 7c-3 2 -5 6 -5 10v0v71c0 34 27 62 61 62zM399 305c22 0 41 -18 41 -41
c0 -22 -19 -41 -41 -41c-23 0 -41 19 -41 41c0 23 18 41 41 41zM399 223c34 0 62 -28 62 -62v-71v0c0 -4 -3 -8 -6 -10l-15 -7v-86c0 -6 -4 -10 -10 -10h-61c-6 0 -11 4 -11 10v86l-14 7c-3 2 -6 6 -6 10v0v71c0 34 27 62 61 62zM113 284c-11 0 -21 -9 -21 -20
s10 -21 21 -21s20 10 20 21s-9 20 -20 20zM256 284c-11 0 -20 -9 -20 -20s9 -21 20 -21s20 10 20 21s-9 20 -20 20zM399 284c-11 0 -20 -9 -20 -20s9 -21 20 -21s21 10 21 21s-10 20 -21 20zM113 202c-23 0 -41 -18 -41 -41v-65l14 -7c3 -2 6 -6 6 -10v0v-82h41v82v0
c0 4 3 8 6 10l15 7v65c0 23 -18 41 -41 41zM256 202c-23 0 -41 -18 -41 -41v-65l15 -7c3 -2 6 -6 6 -10v0v-82h40v82v0c0 4 3 8 6 10l15 7v65c0 23 -18 41 -41 41zM399 202c-23 0 -41 -18 -41 -41v-65l15 -7c3 -2 6 -6 6 -10v0v-82h41v82v0c0 4 3 8 6 10l14 7v65
c0 23 -18 41 -41 41z" />
    <glyph glyph-name="uniF115" unicode="&#xf115;" horiz-adv-x="471" 
d="M8 428h1v0h1v0h287c6 0 10 -5 10 -11v-153h154c6 0 10 -5 10 -11v-286c0 -6 -4 -11 -10 -11h-287c-6 0 -10 5 -10 11v153h-154c-6 0 -10 5 -10 11v286v0c0 5 3 10 8 11zM20 407v-266h150l5 6l15 -15l-6 -6v-149h267v266h-150l-6 -6l-14 15l6 6v149h-267zM61 366h11h102
v-20h-77l95 -95l-15 -15l-95 95v-78h-21v103v10zM268 239l14 -15l-17 -17l-15 14zM237 208l15 -14l-18 -18l-14 15zM206 177l15 -14l-18 -18l-14 15zM294 148l95 -95v78h21v-103v-10h-11h-102v20h77l-95 95z" />
    <glyph glyph-name="uniF106" unicode="&#xf106;" horiz-adv-x="513" 
d="M154 448c45 0 84 -27 102 -66c18 39 58 66 103 66c62 0 113 -51 113 -113v0c0 -6 -5 -10 -11 -10s-10 4 -10 10v0c0 51 -41 93 -92 93c-46 0 -84 -34 -91 -78c15 16 36 26 60 26c45 0 82 -37 82 -82v0c0 -6 -4 -10 -10 -10s-10 4 -10 10v0c0 35 -27 62 -62 62
s-61 -27 -61 -62c9 6 18 11 30 11c28 0 52 -24 52 -52v0c0 -6 -5 -10 -11 -10s-10 4 -10 10v0c0 17 -14 31 -31 31s-30 -14 -30 -31v0v-1v-29h-21v29v1v0c0 17 -13 31 -30 31s-31 -14 -31 -31v0c0 -6 -4 -10 -10 -10s-11 4 -11 10v0c0 28 24 52 52 52c12 0 21 -5 30 -11
c0 35 -26 62 -61 62s-62 -27 -62 -62v0c0 -6 -4 -10 -10 -10s-10 4 -10 10v0c0 45 37 82 82 82c24 0 45 -10 60 -26c-7 44 -45 78 -91 78c-51 0 -92 -42 -92 -93v0c0 -6 -4 -10 -10 -10s-11 4 -11 10v0c0 62 51 113 113 113zM90 212v0h1v0h1v0h1h10h317v0c6 0 11 -4 11 -10
s-5 -10 -11 -10v0h-1c-4 -23 -22 -46 -48 -65c-18 -13 -40 -23 -64 -30c0 -1 1 -2 1 -3v0v-56h184h2h8v0c6 0 11 -4 11 -10s-5 -10 -11 -10v0h-1c0 -2 -1 -4 -1 -5v0c-14 -46 -57 -76 -103 -76h-281c-46 0 -89 30 -103 76v0c0 1 -1 3 -1 5h-1h-1c-6 0 -10 4 -10 10
c0 5 5 10 10 10v0h1h8h186v56v0c0 1 1 2 1 3c-24 7 -46 17 -64 30c-26 19 -44 42 -48 65h-1h-2c-6 0 -10 4 -10 10c0 5 4 9 9 10zM117 192c4 -14 16 -32 37 -48c26 -19 62 -34 102 -34s77 15 103 34c21 16 33 34 37 48h-279zM226 92v-54h61v54c-10 -2 -20 -2 -31 -2
s-20 0 -30 2zM33 18c11 -37 46 -61 83 -61h281c37 0 72 24 83 61h-184h-263z" />
    <glyph glyph-name="uniF118" unicode="&#xf118;" 
d="M256 448c28 0 51 -23 51 -51s-23 -51 -51 -51s-51 23 -51 51s23 51 51 51zM256 428c-17 0 -31 -14 -31 -31s14 -31 31 -31s31 14 31 31s-14 31 -31 31zM201 346h13c26 0 50 -15 63 -36l29 -46h41c15 0 29 -11 32 -26v0c3 -19 -12 -36 -31 -36h-60c-11 0 -20 7 -26 15v0v0
l-8 12l-16 -53l35 -28v0c12 -9 17 -26 11 -40v0l-37 -97v0v-1v-1c34 2 70 5 97 6c18 1 33 1 44 2s19 1 22 1c2 0 3 -1 5 -1l43 203l-23 -23c-2 -2 -5 -4 -8 -4c-6 0 -10 5 -10 11c0 3 2 6 4 8l73 73c1 1 4 3 6 3h2c6 0 10 -4 10 -10c0 -2 -1 -5 -3 -7l-25 -25v-1l-50 -234
v-1v0v0v0c5 -4 8 -9 11 -14h1c0 -1 1 -2 1 -3c1 -2 1 -4 2 -6v-1l1 -1c1 -3 1 -5 1 -8s0 -5 -1 -8c-1 -5 -3 -11 -6 -15v0c-3 -4 -7 -8 -11 -11c-7 -5 -14 -7 -23 -7h-379c-17 0 -31 14 -31 31s14 30 31 30c-1 0 2 1 5 1h12c10 1 25 2 42 3c26 1 62 3 96 5c-5 8 -7 19 -3 29
v0l28 75l-15 12l-15 -32v-1v0c-6 -12 -18 -20 -32 -20h-1v0h-3c-2 0 -6 1 -10 1c-8 1 -19 1 -30 2c-22 2 -43 3 -43 3c-19 1 -33 19 -32 38s18 33 37 32l61 -5l17 31c-4 8 -6 19 -2 32v0v1l22 67l-24 -10l-21 -42v0v0c-9 -16 -31 -22 -46 -11v0v0c-12 9 -15 27 -8 40v0
l28 54v1v0c3 8 11 12 17 15v0v0l69 24h1v0c6 2 14 4 20 4zM201 325c-4 0 -9 -1 -13 -2v0l-70 -24v0c-3 -1 -4 -2 -5 -4v-1l-29 -56v0v0c-3 -5 -2 -10 2 -13c5 -4 12 -3 15 3l1 1l23 46c1 2 4 3 6 4l47 19c1 0 2 1 3 1c6 0 11 -5 11 -11c0 -1 -1 -2 -1 -3l-29 -88h1
c-5 -17 4 -24 8 -28l59 -48c2 -2 4 -5 4 -8c0 -1 -1 -3 -1 -4l-31 -81v-1c-3 -7 2 -15 9 -18c1 0 2 -1 2 -1v0h2c6 0 11 3 13 9v0v0l37 99c2 6 0 13 -4 16v0l-41 32c-2 2 -4 5 -4 8c0 1 1 2 1 3l24 82c1 4 6 8 10 8c3 0 7 -2 9 -5l19 -32v0c3 -4 6 -5 9 -5h60
c6 0 11 5 10 11c-1 5 -6 9 -11 9h-47v0c-3 0 -7 2 -9 5l-31 51c-9 15 -27 26 -46 26h-13zM158 153l-15 -28l-3 -6h-7l-67 5c-8 1 -15 -6 -16 -13c-1 -8 6 -14 13 -15v0s22 -1 43 -3c11 -1 22 -1 30 -2c4 0 8 -1 10 -1h3v0c5 0 12 4 14 8v0v0l16 38zM410 -3h-5
c-9 -2 -16 -10 -16 -20c0 -11 10 -21 21 -21c3 0 5 1 8 2c5 2 8 6 10 11v0c0 1 2 2 2 3v1v4v4s-2 3 -2 4v0c-2 5 -5 9 -10 11v0c-1 0 -3 1 -4 1v0h-4zM373 -4c-9 0 -16 -1 -28 -2c-35 -2 -80 -3 -125 -6c-2 0 -3 -1 -5 -1c-45 -3 -89 -5 -123 -7c-13 -1 -24 -1 -33 -1
c2 -4 2 -8 2 -12s0 -8 -1 -11h314c-4 6 -5 13 -5 21c0 7 1 13 4 19zM31 -23c-3 0 -6 -1 -8 -3s-3 -4 -3 -7s1 -6 3 -8s5 -3 8 -3c6 0 10 5 10 11s-4 10 -10 10z" />
    <glyph glyph-name="uniF111" unicode="&#xf111;" 
d="M254 448h2c1 0 3 0 4 -1l246 -113c3 -1 6 -5 6 -9v-379c0 -6 -4 -10 -10 -10h-125c-1 0 -3 -1 -4 -1s-3 1 -4 1h-227c-1 0 -3 -1 -4 -1s-3 1 -4 1h-124c-6 0 -10 4 -10 10v379c0 4 3 8 6 9l246 113c1 0 1 1 2 1zM256 427l-236 -108v-363h115l22 23c-31 7 -55 33 -55 66
v222c0 38 33 68 72 68h53c4 12 16 21 29 21s25 -9 29 -21h53c39 0 72 -29 72 -68v-222c0 -32 -24 -59 -55 -66l22 -23h115v363zM256 335c-6 0 -10 -4 -10 -10v0v-1c0 -5 5 -9 10 -9c6 0 10 4 10 10s-4 10 -10 10zM174 315c-28 0 -51 -22 -51 -48v-222c0 -27 22 -48 51 -48
h164c28 0 51 22 51 48v222c0 27 -22 48 -51 48h-53c-4 -12 -16 -21 -29 -21s-25 9 -29 21h-53zM174 274h164c16 0 31 -13 31 -29v-85c0 -16 -15 -28 -31 -28h-164c-16 0 -31 12 -31 28v85c0 16 15 29 31 29zM174 253c-6 0 -10 -4 -10 -8v-85c0 -4 4 -8 10 -8h164
c6 0 10 4 10 8v85c0 4 -4 8 -10 8h-164zM179 90c20 0 36 -16 36 -36s-16 -36 -36 -36s-36 16 -36 36s16 36 36 36zM333 90c20 0 36 -16 36 -36s-16 -36 -36 -36s-36 16 -36 36s16 36 36 36zM179 69c-9 0 -15 -6 -15 -15s6 -16 15 -16s16 7 16 16s-7 15 -16 15zM333 69
c-9 0 -16 -6 -16 -15s7 -16 16 -16s15 7 15 16s-6 15 -15 15zM184 -23l-20 -21h184l-20 21h-144z" />
    <glyph glyph-name="uniF109" unicode="&#xf109;" horiz-adv-x="492" 
d="M246 438c136 0 246 -110 246 -246s-110 -246 -246 -246s-246 110 -246 246s110 246 246 246zM246 417c-125 0 -226 -100 -226 -225s101 -225 226 -225s225 100 225 225s-100 225 -225 225zM164 253c17 0 31 -13 31 -30s-14 -31 -31 -31s-31 14 -31 31s14 30 31 30z
M328 253c17 0 30 -13 30 -30s-13 -31 -30 -31s-31 14 -31 31s14 30 31 30zM111 141h2c3 0 6 -2 8 -4c0 0 49 -68 125 -68s125 68 125 68c2 2 5 4 8 4c6 0 10 -4 10 -10c0 -2 -1 -6 -2 -7c0 0 -53 -75 -141 -75s-142 75 -142 75c-1 2 -2 5 -2 7c0 5 4 9 9 10z" />
    <glyph glyph-name="uniF113" unicode="&#xf113;" horiz-adv-x="492" 
d="M19 428v0h1v0v0h69c16 0 29 -5 38 -13s14 -20 18 -33v0v0l22 -88h314v0c6 0 11 -4 11 -10c0 -1 -1 -2 -1 -3l-74 -195c-1 -4 -5 -7 -9 -7v0h-188l7 -27v-1c3 -11 6 -20 10 -25s10 -8 26 -8h157c6 0 10 -4 10 -10c0 -1 -1 -3 -1 -4c7 -7 11 -16 11 -27
c0 -22 -19 -41 -41 -41c-23 0 -41 19 -41 41c0 8 2 14 6 20h-63c4 -6 6 -12 6 -20c0 -22 -19 -41 -41 -41c-23 0 -41 19 -41 41c0 10 4 19 10 26c-5 3 -9 6 -13 10c-9 10 -12 21 -15 33l-82 331c-3 11 -7 19 -12 23s-11 7 -24 7h-48c0 -11 -10 -20 -21 -20s-20 9 -20 20
c0 10 8 19 18 20zM172 274l43 -174h186l66 174h-295zM266 -3c-11 0 -20 -9 -20 -20s9 -21 20 -21s21 10 21 21s-10 20 -21 20zM399 -3c-11 0 -20 -9 -20 -20s9 -21 20 -21s21 10 21 21s-10 20 -21 20z" />
    <glyph glyph-name="uniF108" unicode="&#xf108;" 
d="M419 448h1c2 0 5 -1 7 -3l7 -7l1 1c6 6 13 9 21 9c7 0 14 -3 20 -9h1l26 -27c11 -11 11 -30 0 -41l-1 -1l7 -7c2 -2 3 -5 3 -7c0 -6 -4 -11 -10 -11c-2 0 -6 1 -8 3l-6 7l-6 -6l7 -6c2 -2 3 -6 3 -8c0 -6 -5 -10 -11 -10c-2 0 -5 1 -7 3l-7 7l-8 -9c-6 -6 -14 -7 -21 -7
l-74 -73c10 -12 21 -27 26 -45c7 -21 6 -47 -10 -70c-11 -16 -26 -24 -39 -28s-22 -7 -28 -13c-5 -6 -8 -23 -13 -46s-14 -51 -41 -78c-20 -20 -45 -30 -70 -30c-42 0 -84 26 -123 66v0c-32 31 -55 64 -63 98s0 68 27 95c26 27 55 36 78 41s40 8 46 13c6 6 9 16 14 28
s12 28 28 39c14 10 29 13 43 13c28 0 53 -14 71 -28v0l73 73c0 7 1 15 7 21l9 8l-7 7c-2 2 -3 5 -3 7c0 5 3 10 8 11h1h1c2 0 6 -1 8 -3l6 -7l6 6l-7 6c-2 2 -3 6 -3 8c0 5 4 9 9 10h1zM456 428c-2 0 -4 -1 -6 -3l-45 -45c-2 -2 -3 -5 -2 -8l1 -6l-4 -4l-80 -80l-1 -1l-3 -3
v0v-1l-70 -69c11 -5 21 -15 26 -26l69 69l1 1c1 1 1 2 2 3l2 1l80 80l4 4l6 -1c3 -1 6 0 8 2l45 45c3 3 3 9 0 12l-27 27c-2 2 -4 3 -6 3zM455 415c1 0 3 0 4 -1c2 -2 2 -6 0 -8l-38 -38c-1 -1 -3 -2 -4 -2s-3 1 -4 2c-2 2 -2 6 0 8l38 38c1 1 3 1 4 1zM474 396
c1 0 3 0 4 -1c2 -2 2 -6 0 -8l-38 -38c-1 -1 -3 -2 -4 -2s-3 1 -4 2c-2 2 -2 6 0 8l38 38c1 1 3 1 4 1zM239 309c-11 0 -21 -2 -32 -10c-12 -8 -16 -18 -20 -29s-8 -25 -19 -36c-14 -14 -34 -13 -55 -18s-45 -12 -68 -35s-29 -48 -22 -76s26 -60 57 -89h1
c37 -38 75 -60 108 -60c20 0 39 8 56 25c23 23 30 47 35 68s4 41 18 55v0c11 11 25 15 36 19s21 8 29 20c12 18 12 35 7 52c-4 13 -12 25 -20 36l-74 -74c-2 -26 -24 -47 -51 -47c-28 0 -51 23 -51 51c0 27 21 49 47 51l74 74c-16 12 -36 23 -56 23zM225 192
c-17 0 -30 -14 -30 -31s13 -30 30 -30s31 13 31 30s-14 31 -31 31zM114 129c1 0 3 -1 4 -2l73 -73c2 -2 2 -6 0 -8l-12 -12c-2 -2 -6 -2 -8 0l-73 73c-2 2 -2 6 0 8l12 12c1 1 3 2 4 2z" />
    <glyph glyph-name="uniF10D" unicode="&#xf10d;" horiz-adv-x="514" 
d="M12 448c3 0 5 -1 7 -3l121 -121l81 81c8 8 18 12 27 12c13 0 28 -10 28 -34v-195l41 -41c18 7 31 26 31 46c0 23 -15 42 -37 47c-5 1 -8 7 -7 12s7 9 12 8c31 -8 53 -36 53 -68c0 -26 -15 -48 -37 -60l40 -40c30 24 48 61 48 100c0 47 -27 90 -68 113c-4 2 -6 8 -3 13
s10 7 15 4c48 -26 77 -76 77 -130c0 -45 -20 -87 -54 -115l32 -32c45 35 73 89 73 147c0 71 -40 135 -103 167c-4 2 -6 8 -4 15c2 5 8 6 13 4c70 -36 114 -106 114 -185c0 -65 -30 -123 -79 -162l78 -78c4 -4 4 -10 0 -14c-2 -2 -5 -3 -7 -3s-5 1 -7 3l-492 492
c-4 4 -4 10 0 14c2 2 4 3 7 3zM248 397c-4 0 -9 -2 -14 -6l-80 -81l102 -102v175c0 3 0 14 -8 14zM113 298l14 -15l-22 -21c-1 -2 -3 -6 -3 -10v-120c0 -4 2 -7 3 -8l131 -130c4 -4 9 -7 12 -7c5 0 8 7 8 17v150l20 -20v-130c0 -23 -11 -37 -28 -37c-7 0 -17 2 -28 13
l-120 120h-69c-17 0 -31 14 -31 31v122c0 17 14 31 31 31h69zM31 264c-6 0 -11 -5 -11 -11v-122c0 -6 5 -11 11 -11h53c-1 4 -2 10 -2 14v118c0 3 1 8 2 12h-53z" />
    <glyph glyph-name="uniF103" unicode="&#xf103;" horiz-adv-x="492" 
d="M246 366c36 0 60 -2 75 -5c14 -3 20 -6 21 -6v1l1 -1c14 -4 39 -11 49 -33c4 -9 15 -36 26 -65c0 -1 0 -2 1 -4h31c15 0 26 -4 33 -12s9 -17 9 -24c0 -8 -5 -16 -11 -20s-13 -5 -21 -5h-17c2 -4 7 -19 7 -19l1 -1v-2v-70v-51c0 -17 -14 -31 -31 -31h-41
c-17 0 -31 14 -31 31v10h-205v-10c0 -17 -13 -31 -30 -31h-41c-17 0 -31 14 -31 31v39v82v2l1 1s5 15 7 19h-17c-8 0 -15 1 -21 5s-11 12 -11 20c0 7 2 16 9 24s18 12 33 12h30c5 14 11 28 15 39c6 14 9 25 12 30c11 21 34 28 49 33h1c1 0 8 3 22 6c15 3 39 5 75 5zM246 346
c-35 0 -58 -4 -72 -6s-17 -4 -17 -4h-1v0c-15 -5 -33 -13 -39 -24c-1 -2 -5 -13 -11 -27c-4 -10 -9 -23 -14 -35h1c-3 -7 -6 -17 -5 -24c1 -3 1 -5 6 -8s14 -6 29 -6h246c15 0 23 3 28 6s6 5 7 8c1 7 -3 17 -6 24c-11 27 -22 57 -25 64c-5 10 -25 18 -37 22h-1h-1
s-3 2 -17 4s-36 6 -71 6zM42 233c-11 0 -16 -3 -18 -6s-4 -6 -4 -10c0 -3 0 -2 1 -3s5 -2 11 -2h24c3 8 4 11 8 21h-22zM427 233c4 -10 5 -13 8 -21h25c6 0 9 1 10 2s1 0 1 3c0 4 -1 7 -3 10s-7 6 -18 6h-23zM76 206c-6 -16 -15 -37 -15 -38v-68v-12c0 -5 5 -9 10 -9h350
c5 0 9 4 9 9v12v68c0 1 -9 22 -15 38c-2 -2 -5 -4 -8 -6c-9 -5 -21 -8 -38 -8h-246c-17 0 -30 3 -39 8c-3 2 -6 4 -8 6zM102 182h41c22 0 41 -18 41 -41s-19 -41 -41 -41c-9 0 -16 1 -23 4s-13 7 -22 12c-6 3 -12 6 -17 12s-9 14 -9 23c0 17 13 31 30 31zM348 182h41
c17 0 31 -14 31 -31c0 -9 -4 -17 -9 -23s-12 -9 -18 -12c-9 -5 -14 -9 -21 -12s-15 -4 -24 -4c-22 0 -41 18 -41 41s19 41 41 41zM102 161c-6 0 -10 -4 -10 -10c0 -4 2 -6 4 -9s6 -6 12 -9c9 -5 14 -8 19 -10s8 -3 16 -3c11 0 21 10 21 21s-10 20 -21 20h-41zM348 161
c-11 0 -20 -9 -20 -20s9 -21 20 -21c8 0 11 1 16 3s10 5 19 10c6 3 11 6 13 9s3 5 3 9c0 6 -4 10 -10 10h-41zM61 60v-11c0 -6 5 -11 11 -11h41c6 0 10 5 10 11v10h-52c-3 0 -7 0 -10 1zM430 60c-3 -1 -6 -1 -9 -1h-52v-10c0 -6 4 -11 10 -11h41c6 0 10 5 10 11v11z" />
    <glyph glyph-name="uniF104" unicode="&#xf104;" horiz-adv-x="513" 
d="M327 438h2c2 0 5 -1 7 -3l38 -38h26v0c1 0 3 -1 4 -1l102 -41c4 -1 7 -5 7 -9c0 -1 0 -4 -1 -5l-31 -71c-1 -3 -5 -6 -9 -6h-51v-50v-1v-2v-39v-1c0 -1 -1 -2 -1 -3l-20 -50v-121c0 -26 -27 -46 -54 -38v0v0c-17 6 -28 21 -28 39v112h-132l54 -91c14 -23 1 -54 -27 -61v0
c-17 -4 -35 6 -44 20v0l-45 77v-58c0 -26 -27 -46 -54 -38h-1v0c-17 6 -27 21 -27 39v233l-33 31v0c-15 14 -11 39 7 49v0v0c13 8 28 4 37 -5l32 -32h214l19 155c1 4 5 8 9 9zM336 405l-17 -135l81 -41v45c0 6 4 10 10 10h55l24 56l-91 36h-29v0c-2 0 -5 1 -7 3zM405 356
c8 0 16 -8 16 -16s-8 -15 -16 -15s-15 7 -15 15s7 16 15 16zM30 295c-1 0 -2 0 -3 -1l-1 -1c-8 -4 -8 -11 -3 -16v0l36 -35c2 -2 3 -5 3 -7v-237c0 -9 5 -16 13 -19h1c15 -4 27 5 27 18v94v2v2v25c0 6 4 11 10 11h54h3h158c6 0 11 -5 11 -11v-122c0 -9 5 -16 13 -19v0
c15 -4 28 5 28 18v123v1v3l20 50v32l-95 47h-224v0c-2 0 -6 1 -8 3l-34 35c-2 2 -6 4 -9 4zM124 110v-14l63 -108c5 -8 14 -12 21 -10v0v0c15 4 21 19 14 31l-59 101h-39z" />
    <glyph glyph-name="uniF107" unicode="&#xf107;" horiz-adv-x="348" 
d="M210 448h1v0h1c6 0 10 -4 10 -10v-3c-11 -43 10 -77 37 -116s58 -82 58 -139c0 -62 -39 -121 -97 -141c-1 0 -2 -1 -3 -1c-6 0 -10 5 -10 11c0 2 1 5 2 6c0 0 6 9 13 22s14 31 14 44c0 21 -7 37 -14 55c-4 10 -8 23 -11 35c-1 -4 -3 -7 -4 -10c-3 -13 -4 -23 -4 -23
c-1 -5 -6 -9 -11 -9c-2 0 -4 1 -6 2c0 0 -4 3 -8 9s-10 15 -14 27c-7 20 -9 53 -3 94c-23 -21 -59 -61 -59 -122c0 -71 41 -124 41 -124c1 -2 3 -4 3 -6c0 -6 -5 -11 -11 -11c-1 0 -2 1 -3 1c0 0 -30 8 -60 29s-62 58 -62 112c0 171 197 267 197 267c1 0 2 1 3 1zM200 419
c-39 -22 -169 -106 -169 -239c0 -46 26 -76 53 -95c10 -7 18 -11 27 -15c-13 24 -29 59 -29 109c0 100 87 155 87 155c1 1 3 1 5 1c6 0 10 -4 10 -10v-2c-12 -54 -8 -88 -1 -109c1 -4 3 -5 4 -8c4 14 9 32 20 44c2 2 5 3 8 3c5 0 10 -4 10 -9c2 -24 10 -42 17 -60
s14 -38 14 -63c0 -17 -5 -32 -12 -46c32 24 53 64 53 105c0 49 -28 88 -55 128c-23 34 -44 69 -42 111zM25 18h26c6 0 10 -4 10 -10v-21h11v21c0 6 4 10 10 10h41c6 0 10 -4 10 -10v-21h10v21c0 6 5 10 11 10h41c6 0 10 -4 10 -10v-21h10v21c0 6 4 10 10 10h41
c6 0 10 -4 10 -10v-21h11v21c0 6 4 10 10 10h27c13 0 24 -12 24 -25v-47c0 -6 -4 -10 -10 -10h-328c-6 0 -10 4 -10 10v47c0 13 12 25 25 25zM25 -3c-3 0 -5 -1 -5 -4v-37h308v37c0 3 -1 4 -4 4h-17v-20c0 -6 -4 -10 -10 -10h-31c-6 0 -10 4 -10 10v20h-20v-20
c0 -6 -5 -10 -11 -10h-30c-6 0 -11 4 -11 10v20h-20v-20c0 -6 -4 -10 -10 -10h-31c-6 0 -10 4 -10 10v20h-21v-20c0 -6 -4 -10 -10 -10h-31c-6 0 -10 4 -10 10v20h-16z" />
    <glyph glyph-name="uniF110" unicode="&#xf110;" 
d="M234 428v0h1v0h1h40c6 0 11 -5 11 -11v-19h37c7 0 16 4 22 9c12 11 29 14 46 10v1c19 -4 34 -20 38 -39c8 -34 -18 -66 -51 -66c-13 0 -25 5 -34 13c-5 5 -12 8 -19 8h-140c-7 0 -14 -3 -19 -8c-9 -8 -21 -13 -34 -13c-33 0 -59 32 -51 66v0c4 19 20 33 38 38v0v0
c4 1 9 2 13 2s8 0 12 -1c8 -2 15 -6 21 -11s15 -9 22 -9h37v19v0c0 5 4 10 9 11zM246 407v-9h20v9h-20zM133 396c-2 0 -6 0 -8 -1c-10 -3 -18 -12 -20 -21c-5 -20 10 -37 28 -37c7 0 14 2 19 7c9 8 21 13 34 13h140c13 0 25 -5 34 -13c5 -5 12 -7 19 -7c18 0 33 16 28 37
c-2 9 -11 19 -20 21c-10 2 -20 -1 -26 -6c-10 -9 -24 -14 -37 -14h-136c-13 0 -27 5 -37 14c-3 3 -7 5 -11 6c-2 0 -5 1 -7 1zM225 325h21v-72h10h10v72h21v-76c20 -6 37 -20 50 -36h8c45 0 86 -17 118 -49s49 -72 49 -117v-80c0 -6 -4 -11 -10 -11h-103c-6 0 -10 5 -10 11
v80c0 12 -4 22 -12 30s-19 13 -31 13h-8c-19 -25 -49 -41 -82 -41s-63 16 -82 41h-92v-72c0 -6 -4 -10 -10 -10h-62c-6 0 -10 4 -10 10v266v0c0 5 3 9 8 10h1v0h1v0h62c6 0 10 -4 10 -10v-72h92c13 17 30 31 51 37v76zM20 274v-246h41v69v3v3v91v5v3v3v69h-41zM256 233
c-28 0 -53 -14 -68 -36v-1c-9 -13 -14 -28 -14 -45c0 -16 5 -31 13 -44l1 -1v-1l1 -1c15 -21 39 -35 67 -35s53 15 68 36v0c9 13 14 29 14 46c0 16 -5 30 -13 43c-2 1 -4 4 -4 7c-15 19 -39 32 -65 32zM349 193c6 -13 9 -27 9 -42s-2 -28 -8 -41c16 -1 30 -7 41 -18
c12 -12 19 -28 19 -45v-70h82v70c0 39 -16 75 -44 103c-27 27 -61 42 -99 43zM82 192v-82h80c-6 13 -8 26 -8 41s2 28 8 41h-80zM213 131h2c3 0 6 -3 8 -5c7 -10 19 -16 33 -16s26 6 33 16c2 2 5 5 8 5c6 0 10 -5 10 -11c0 -2 -1 -5 -2 -6c-11 -15 -28 -24 -49 -24
s-38 9 -49 24c-1 2 -2 4 -2 6c0 5 3 10 8 11z" />
  </font>
</defs>
</svg>
